<mxfile host="Electron" agent="Mozilla/5.0 (Windows NT 10.0; Win64; x64) AppleWebKit/537.36 (KHTML, like Gecko) draw.io/26.0.9 Chrome/128.0.6613.186 Electron/32.2.5 Safari/537.36" version="26.0.9">
  <diagram name="Página-1" id="P1R4cx2Ud3vtf2QD-WIv">
    <mxGraphModel dx="1985" dy="1298" grid="1" gridSize="10" guides="1" tooltips="1" connect="1" arrows="1" fold="1" page="1" pageScale="1" pageWidth="3300" pageHeight="4681" math="0" shadow="0">
      <root>
        <mxCell id="0" />
        <mxCell id="1" parent="0" />
        <mxCell id="DuurUzJLVybcxwFaVG3o-55" value="Empresa" style="swimlane;childLayout=stackLayout;resizeParent=1;resizeParentMax=0;horizontal=1;startSize=20;horizontalStack=0;html=1;" parent="1" vertex="1">
          <mxGeometry x="270" y="120" width="2130" height="850" as="geometry" />
        </mxCell>
        <mxCell id="DuurUzJLVybcxwFaVG3o-56" value="SOC" style="swimlane;startSize=20;horizontal=0;html=1;" parent="DuurUzJLVybcxwFaVG3o-55" vertex="1">
          <mxGeometry y="20" width="2130" height="360" as="geometry" />
        </mxCell>
        <mxCell id="DuurUzJLVybcxwFaVG3o-57" value="Departamento de RRHH" style="swimlane;startSize=20;horizontal=0;html=1;" parent="DuurUzJLVybcxwFaVG3o-55" vertex="1">
          <mxGeometry y="380" width="2130" height="200" as="geometry" />
        </mxCell>
        <mxCell id="DuurUzJLVybcxwFaVG3o-87" value="Recaba datos de empleados" style="html=1;align=center;verticalAlign=top;rounded=1;absoluteArcSize=1;arcSize=10;dashed=0;whiteSpace=wrap;" parent="DuurUzJLVybcxwFaVG3o-57" vertex="1">
          <mxGeometry x="810" y="10" width="140" height="40" as="geometry" />
        </mxCell>
        <mxCell id="DuurUzJLVybcxwFaVG3o-88" value="Consulta catálogo de formación de un centro" style="html=1;align=center;verticalAlign=top;rounded=1;absoluteArcSize=1;arcSize=10;dashed=0;whiteSpace=wrap;" parent="DuurUzJLVybcxwFaVG3o-57" vertex="1">
          <mxGeometry x="810" y="80" width="140" height="40" as="geometry" />
        </mxCell>
        <mxCell id="DuurUzJLVybcxwFaVG3o-89" value="Contrata cursos" style="html=1;align=center;verticalAlign=top;rounded=1;absoluteArcSize=1;arcSize=10;dashed=0;whiteSpace=wrap;" parent="DuurUzJLVybcxwFaVG3o-57" vertex="1">
          <mxGeometry x="810" y="160" width="140" height="30" as="geometry" />
        </mxCell>
        <mxCell id="DuurUzJLVybcxwFaVG3o-93" value="" style="html=1;points=[];perimeter=orthogonalPerimeter;fillColor=strokeColor;" parent="DuurUzJLVybcxwFaVG3o-57" vertex="1">
          <mxGeometry x="1030" y="60" width="5" height="80" as="geometry" />
        </mxCell>
        <mxCell id="DuurUzJLVybcxwFaVG3o-94" value="Crea mensaje informativo" style="html=1;align=center;verticalAlign=top;rounded=1;absoluteArcSize=1;arcSize=10;dashed=0;whiteSpace=wrap;" parent="DuurUzJLVybcxwFaVG3o-57" vertex="1">
          <mxGeometry x="1090" y="85" width="140" height="30" as="geometry" />
        </mxCell>
        <mxCell id="DuurUzJLVybcxwFaVG3o-95" value="" style="html=1;points=[];perimeter=orthogonalPerimeter;fillColor=strokeColor;" parent="DuurUzJLVybcxwFaVG3o-57" vertex="1">
          <mxGeometry x="720" y="60" width="5" height="80" as="geometry" />
        </mxCell>
        <mxCell id="DuurUzJLVybcxwFaVG3o-97" value="" style="html=1;verticalAlign=bottom;labelBackgroundColor=none;endArrow=block;endFill=1;rounded=0;exitX=0.298;exitY=0.103;exitDx=0;exitDy=0;exitPerimeter=0;entryX=0;entryY=0.5;entryDx=0;entryDy=0;" parent="DuurUzJLVybcxwFaVG3o-57" source="DuurUzJLVybcxwFaVG3o-95" target="DuurUzJLVybcxwFaVG3o-87" edge="1">
          <mxGeometry width="160" relative="1" as="geometry">
            <mxPoint x="810" y="-60" as="sourcePoint" />
            <mxPoint x="970" y="-60" as="targetPoint" />
          </mxGeometry>
        </mxCell>
        <mxCell id="DuurUzJLVybcxwFaVG3o-98" value="" style="html=1;verticalAlign=bottom;labelBackgroundColor=none;endArrow=block;endFill=1;rounded=0;exitX=0.769;exitY=0.897;exitDx=0;exitDy=0;exitPerimeter=0;entryX=0;entryY=0.5;entryDx=0;entryDy=0;" parent="DuurUzJLVybcxwFaVG3o-57" source="DuurUzJLVybcxwFaVG3o-95" target="DuurUzJLVybcxwFaVG3o-89" edge="1">
          <mxGeometry width="160" relative="1" as="geometry">
            <mxPoint x="731" y="78" as="sourcePoint" />
            <mxPoint x="820" y="40" as="targetPoint" />
          </mxGeometry>
        </mxCell>
        <mxCell id="DuurUzJLVybcxwFaVG3o-99" value="" style="html=1;verticalAlign=bottom;labelBackgroundColor=none;endArrow=block;endFill=1;rounded=0;exitX=0.556;exitY=0.489;exitDx=0;exitDy=0;exitPerimeter=0;entryX=0;entryY=0.5;entryDx=0;entryDy=0;" parent="DuurUzJLVybcxwFaVG3o-57" source="DuurUzJLVybcxwFaVG3o-95" target="DuurUzJLVybcxwFaVG3o-88" edge="1">
          <mxGeometry width="160" relative="1" as="geometry">
            <mxPoint x="741" y="88" as="sourcePoint" />
            <mxPoint x="830" y="50" as="targetPoint" />
          </mxGeometry>
        </mxCell>
        <mxCell id="DuurUzJLVybcxwFaVG3o-100" value="" style="html=1;verticalAlign=bottom;labelBackgroundColor=none;endArrow=block;endFill=1;rounded=0;exitX=0.733;exitY=0.497;exitDx=0;exitDy=0;exitPerimeter=0;entryX=0;entryY=0.5;entryDx=0;entryDy=0;" parent="DuurUzJLVybcxwFaVG3o-57" source="DuurUzJLVybcxwFaVG3o-93" target="DuurUzJLVybcxwFaVG3o-94" edge="1">
          <mxGeometry width="160" relative="1" as="geometry">
            <mxPoint x="751" y="98" as="sourcePoint" />
            <mxPoint x="840" y="60" as="targetPoint" />
          </mxGeometry>
        </mxCell>
        <mxCell id="DuurUzJLVybcxwFaVG3o-101" style="edgeStyle=orthogonalEdgeStyle;rounded=0;orthogonalLoop=1;jettySize=auto;html=1;exitX=1;exitY=0.5;exitDx=0;exitDy=0;entryX=0.4;entryY=0.497;entryDx=0;entryDy=0;entryPerimeter=0;" parent="DuurUzJLVybcxwFaVG3o-57" source="DuurUzJLVybcxwFaVG3o-88" target="DuurUzJLVybcxwFaVG3o-93" edge="1">
          <mxGeometry relative="1" as="geometry" />
        </mxCell>
        <mxCell id="DuurUzJLVybcxwFaVG3o-104" style="edgeStyle=orthogonalEdgeStyle;rounded=0;orthogonalLoop=1;jettySize=auto;html=1;exitX=1;exitY=0.5;exitDx=0;exitDy=0;entryX=0.124;entryY=0.496;entryDx=0;entryDy=0;entryPerimeter=0;" parent="DuurUzJLVybcxwFaVG3o-57" source="DuurUzJLVybcxwFaVG3o-87" target="DuurUzJLVybcxwFaVG3o-93" edge="1">
          <mxGeometry relative="1" as="geometry" />
        </mxCell>
        <mxCell id="DuurUzJLVybcxwFaVG3o-105" style="edgeStyle=orthogonalEdgeStyle;rounded=0;orthogonalLoop=1;jettySize=auto;html=1;exitX=1;exitY=0.5;exitDx=0;exitDy=0;entryX=0.124;entryY=0.502;entryDx=0;entryDy=0;entryPerimeter=0;" parent="DuurUzJLVybcxwFaVG3o-57" source="DuurUzJLVybcxwFaVG3o-89" target="DuurUzJLVybcxwFaVG3o-93" edge="1">
          <mxGeometry relative="1" as="geometry" />
        </mxCell>
        <mxCell id="DuurUzJLVybcxwFaVG3o-58" value="Departamento de desarrollo" style="swimlane;startSize=20;horizontal=0;html=1;" parent="DuurUzJLVybcxwFaVG3o-55" vertex="1">
          <mxGeometry y="580" width="2130" height="270" as="geometry" />
        </mxCell>
        <mxCell id="DuurUzJLVybcxwFaVG3o-111" value="" style="html=1;align=center;verticalAlign=top;rounded=1;absoluteArcSize=1;arcSize=20;dashed=1;whiteSpace=wrap;" parent="DuurUzJLVybcxwFaVG3o-58" vertex="1">
          <mxGeometry x="480" y="80" width="310" height="110" as="geometry" />
        </mxCell>
        <mxCell id="GnfKwq6RzH2X60bF8twh-3" style="edgeStyle=orthogonalEdgeStyle;rounded=0;orthogonalLoop=1;jettySize=auto;html=1;exitX=1;exitY=0.5;exitDx=0;exitDy=0;entryX=0;entryY=0.5;entryDx=0;entryDy=0;" edge="1" parent="DuurUzJLVybcxwFaVG3o-58" source="DuurUzJLVybcxwFaVG3o-109" target="GnfKwq6RzH2X60bF8twh-2">
          <mxGeometry relative="1" as="geometry" />
        </mxCell>
        <mxCell id="DuurUzJLVybcxwFaVG3o-109" value="Analiza automatización" style="html=1;align=center;verticalAlign=top;rounded=1;absoluteArcSize=1;arcSize=10;dashed=0;whiteSpace=wrap;" parent="DuurUzJLVybcxwFaVG3o-58" vertex="1">
          <mxGeometry x="495" y="120" width="140" height="30" as="geometry" />
        </mxCell>
        <mxCell id="DuurUzJLVybcxwFaVG3o-112" value="Presupuesto &amp;gt; 10000€" style="html=1;shape=mxgraph.infographic.ribbonSimple;notch1=12.95;notch2=0;align=center;verticalAlign=middle;fontSize=12;fontStyle=0;flipH=1;fillColor=#FFFFFF;whiteSpace=wrap;direction=west;" parent="DuurUzJLVybcxwFaVG3o-58" vertex="1">
          <mxGeometry x="650" y="70" width="160" height="30" as="geometry" />
        </mxCell>
        <mxCell id="GnfKwq6RzH2X60bF8twh-2" value="Desarrollo de herramienta" style="html=1;align=center;verticalAlign=top;rounded=1;absoluteArcSize=1;arcSize=10;dashed=0;whiteSpace=wrap;" vertex="1" parent="DuurUzJLVybcxwFaVG3o-58">
          <mxGeometry x="1490" y="115" width="140" height="40" as="geometry" />
        </mxCell>
        <mxCell id="DuurUzJLVybcxwFaVG3o-63" value="" style="swimlane;childLayout=stackLayout;resizeParent=1;resizeParentMax=0;horizontal=0;startSize=0;horizontalStack=0;html=1;" parent="1" vertex="1">
          <mxGeometry x="290" y="140" width="2110" height="360" as="geometry" />
        </mxCell>
        <mxCell id="DuurUzJLVybcxwFaVG3o-64" value="Gerente de operaciones" style="swimlane;startSize=20;horizontal=0;html=1;" parent="DuurUzJLVybcxwFaVG3o-63" vertex="1">
          <mxGeometry width="2110" height="170" as="geometry" />
        </mxCell>
        <mxCell id="GnfKwq6RzH2X60bF8twh-6" value="" style="edgeStyle=orthogonalEdgeStyle;rounded=0;orthogonalLoop=1;jettySize=auto;html=1;" edge="1" parent="DuurUzJLVybcxwFaVG3o-64" source="DuurUzJLVybcxwFaVG3o-60" target="DuurUzJLVybcxwFaVG3o-59">
          <mxGeometry relative="1" as="geometry" />
        </mxCell>
        <mxCell id="DuurUzJLVybcxwFaVG3o-60" value="Genera solicitud" style="html=1;align=center;verticalAlign=top;rounded=1;absoluteArcSize=1;arcSize=10;dashed=0;whiteSpace=wrap;" parent="DuurUzJLVybcxwFaVG3o-64" vertex="1">
          <mxGeometry x="130" y="70" width="140" height="30" as="geometry" />
        </mxCell>
        <mxCell id="DuurUzJLVybcxwFaVG3o-67" style="edgeStyle=orthogonalEdgeStyle;rounded=0;orthogonalLoop=1;jettySize=auto;html=1;exitX=1;exitY=0.5;exitDx=0;exitDy=0;entryX=0;entryY=0.5;entryDx=0;entryDy=0;" parent="DuurUzJLVybcxwFaVG3o-64" source="DuurUzJLVybcxwFaVG3o-59" target="DuurUzJLVybcxwFaVG3o-60" edge="1">
          <mxGeometry relative="1" as="geometry" />
        </mxCell>
        <mxCell id="DuurUzJLVybcxwFaVG3o-59" value="" style="ellipse;fillColor=strokeColor;html=1;" parent="DuurUzJLVybcxwFaVG3o-64" vertex="1">
          <mxGeometry x="50" y="75" width="20" height="20" as="geometry" />
        </mxCell>
        <mxCell id="DuurUzJLVybcxwFaVG3o-80" style="edgeStyle=orthogonalEdgeStyle;rounded=0;orthogonalLoop=1;jettySize=auto;html=1;exitX=1;exitY=0.5;exitDx=0;exitDy=0;entryX=0;entryY=0.5;entryDx=0;entryDy=0;" parent="DuurUzJLVybcxwFaVG3o-64" source="DuurUzJLVybcxwFaVG3o-74" target="DuurUzJLVybcxwFaVG3o-76" edge="1">
          <mxGeometry relative="1" as="geometry" />
        </mxCell>
        <mxCell id="DuurUzJLVybcxwFaVG3o-74" value="Determina si hay posibilidades de mejora" style="html=1;align=center;verticalAlign=top;rounded=1;absoluteArcSize=1;arcSize=10;dashed=0;whiteSpace=wrap;" parent="DuurUzJLVybcxwFaVG3o-64" vertex="1">
          <mxGeometry x="350" y="65" width="140" height="40" as="geometry" />
        </mxCell>
        <mxCell id="DuurUzJLVybcxwFaVG3o-81" style="edgeStyle=orthogonalEdgeStyle;rounded=0;orthogonalLoop=1;jettySize=auto;html=1;exitX=0.5;exitY=0;exitDx=0;exitDy=0;entryX=0;entryY=0.5;entryDx=0;entryDy=0;" parent="DuurUzJLVybcxwFaVG3o-64" source="DuurUzJLVybcxwFaVG3o-76" target="DuurUzJLVybcxwFaVG3o-79" edge="1">
          <mxGeometry relative="1" as="geometry" />
        </mxCell>
        <mxCell id="DuurUzJLVybcxwFaVG3o-85" style="edgeStyle=orthogonalEdgeStyle;rounded=0;orthogonalLoop=1;jettySize=auto;html=1;exitX=1;exitY=0.5;exitDx=0;exitDy=0;entryX=0;entryY=0.5;entryDx=0;entryDy=0;" parent="DuurUzJLVybcxwFaVG3o-64" source="DuurUzJLVybcxwFaVG3o-76" target="DuurUzJLVybcxwFaVG3o-84" edge="1">
          <mxGeometry relative="1" as="geometry" />
        </mxCell>
        <mxCell id="DuurUzJLVybcxwFaVG3o-107" style="edgeStyle=orthogonalEdgeStyle;rounded=0;orthogonalLoop=1;jettySize=auto;html=1;exitX=0.5;exitY=1;exitDx=0;exitDy=0;entryX=0.5;entryY=0;entryDx=0;entryDy=0;" parent="DuurUzJLVybcxwFaVG3o-64" source="DuurUzJLVybcxwFaVG3o-76" target="DuurUzJLVybcxwFaVG3o-106" edge="1">
          <mxGeometry relative="1" as="geometry" />
        </mxCell>
        <mxCell id="DuurUzJLVybcxwFaVG3o-76" value="" style="rhombus;" parent="DuurUzJLVybcxwFaVG3o-64" vertex="1">
          <mxGeometry x="530" y="70" width="30" height="30" as="geometry" />
        </mxCell>
        <mxCell id="DuurUzJLVybcxwFaVG3o-83" style="edgeStyle=orthogonalEdgeStyle;rounded=0;orthogonalLoop=1;jettySize=auto;html=1;exitX=1;exitY=0.5;exitDx=0;exitDy=0;entryX=0;entryY=0.5;entryDx=0;entryDy=0;" parent="DuurUzJLVybcxwFaVG3o-64" source="DuurUzJLVybcxwFaVG3o-79" target="DuurUzJLVybcxwFaVG3o-82" edge="1">
          <mxGeometry relative="1" as="geometry" />
        </mxCell>
        <mxCell id="DuurUzJLVybcxwFaVG3o-79" value="Marca para revisión posterior" style="html=1;align=center;verticalAlign=top;rounded=1;absoluteArcSize=1;arcSize=10;dashed=0;whiteSpace=wrap;" parent="DuurUzJLVybcxwFaVG3o-64" vertex="1">
          <mxGeometry x="600" y="10" width="140" height="40" as="geometry" />
        </mxCell>
        <mxCell id="DuurUzJLVybcxwFaVG3o-82" value="" style="shape=sumEllipse;perimeter=ellipsePerimeter;html=1;backgroundOutline=1;" parent="DuurUzJLVybcxwFaVG3o-64" vertex="1">
          <mxGeometry x="800" y="20" width="20" height="20" as="geometry" />
        </mxCell>
        <mxCell id="DuurUzJLVybcxwFaVG3o-84" value="Solicitud de formación" style="html=1;align=center;verticalAlign=top;rounded=1;absoluteArcSize=1;arcSize=10;dashed=0;whiteSpace=wrap;" parent="DuurUzJLVybcxwFaVG3o-64" vertex="1">
          <mxGeometry x="600" y="70" width="140" height="30" as="geometry" />
        </mxCell>
        <mxCell id="DuurUzJLVybcxwFaVG3o-106" value="Solicitud de automatización" style="html=1;align=center;verticalAlign=top;rounded=1;absoluteArcSize=1;arcSize=10;dashed=0;whiteSpace=wrap;" parent="DuurUzJLVybcxwFaVG3o-64" vertex="1">
          <mxGeometry x="475" y="120" width="140" height="40" as="geometry" />
        </mxCell>
        <mxCell id="GnfKwq6RzH2X60bF8twh-4" value="Analiza automatización" style="html=1;align=center;verticalAlign=top;rounded=1;absoluteArcSize=1;arcSize=10;dashed=0;whiteSpace=wrap;" vertex="1" parent="DuurUzJLVybcxwFaVG3o-64">
          <mxGeometry x="1280" y="70" width="140" height="30" as="geometry" />
        </mxCell>
        <mxCell id="GnfKwq6RzH2X60bF8twh-12" style="edgeStyle=orthogonalEdgeStyle;rounded=0;orthogonalLoop=1;jettySize=auto;html=1;exitX=1;exitY=0.5;exitDx=0;exitDy=0;entryX=0;entryY=0.5;entryDx=0;entryDy=0;" edge="1" parent="DuurUzJLVybcxwFaVG3o-64" source="GnfKwq6RzH2X60bF8twh-9" target="GnfKwq6RzH2X60bF8twh-11">
          <mxGeometry relative="1" as="geometry" />
        </mxCell>
        <mxCell id="GnfKwq6RzH2X60bF8twh-9" value="Realiza prueba inicial" style="html=1;align=center;verticalAlign=top;rounded=1;absoluteArcSize=1;arcSize=10;dashed=0;whiteSpace=wrap;" vertex="1" parent="DuurUzJLVybcxwFaVG3o-64">
          <mxGeometry x="1470" y="70" width="140" height="30" as="geometry" />
        </mxCell>
        <mxCell id="GnfKwq6RzH2X60bF8twh-14" style="edgeStyle=orthogonalEdgeStyle;rounded=0;orthogonalLoop=1;jettySize=auto;html=1;exitX=1;exitY=0.5;exitDx=0;exitDy=0;entryX=0;entryY=0.5;entryDx=0;entryDy=0;" edge="1" parent="DuurUzJLVybcxwFaVG3o-64" source="GnfKwq6RzH2X60bF8twh-11" target="GnfKwq6RzH2X60bF8twh-13">
          <mxGeometry relative="1" as="geometry" />
        </mxCell>
        <mxCell id="GnfKwq6RzH2X60bF8twh-11" value="Documentación" style="fontStyle=0;html=1;whiteSpace=wrap;" vertex="1" parent="DuurUzJLVybcxwFaVG3o-64">
          <mxGeometry x="1660" y="65" width="120" height="40" as="geometry" />
        </mxCell>
        <mxCell id="GnfKwq6RzH2X60bF8twh-16" style="edgeStyle=orthogonalEdgeStyle;rounded=0;orthogonalLoop=1;jettySize=auto;html=1;exitX=1;exitY=0.5;exitDx=0;exitDy=0;entryX=0;entryY=0.5;entryDx=0;entryDy=0;" edge="1" parent="DuurUzJLVybcxwFaVG3o-64" source="GnfKwq6RzH2X60bF8twh-13" target="GnfKwq6RzH2X60bF8twh-15">
          <mxGeometry relative="1" as="geometry" />
        </mxCell>
        <mxCell id="GnfKwq6RzH2X60bF8twh-13" value="" style="shape=collate;html=1;" vertex="1" parent="DuurUzJLVybcxwFaVG3o-64">
          <mxGeometry x="1830" y="65" width="40" height="40" as="geometry" />
        </mxCell>
        <mxCell id="GnfKwq6RzH2X60bF8twh-18" style="edgeStyle=orthogonalEdgeStyle;rounded=0;orthogonalLoop=1;jettySize=auto;html=1;exitX=0.5;exitY=1;exitDx=0;exitDy=0;entryX=0.5;entryY=0;entryDx=0;entryDy=0;" edge="1" parent="DuurUzJLVybcxwFaVG3o-64" source="GnfKwq6RzH2X60bF8twh-15" target="GnfKwq6RzH2X60bF8twh-17">
          <mxGeometry relative="1" as="geometry" />
        </mxCell>
        <mxCell id="GnfKwq6RzH2X60bF8twh-15" value="Análisis de incidencias" style="html=1;align=center;verticalAlign=top;rounded=1;absoluteArcSize=1;arcSize=10;dashed=0;whiteSpace=wrap;" vertex="1" parent="DuurUzJLVybcxwFaVG3o-64">
          <mxGeometry x="1920" y="70" width="140" height="30" as="geometry" />
        </mxCell>
        <mxCell id="GnfKwq6RzH2X60bF8twh-17" value="" style="ellipse;html=1;shape=endState;fillColor=strokeColor;" vertex="1" parent="DuurUzJLVybcxwFaVG3o-64">
          <mxGeometry x="1975" y="125" width="30" height="30" as="geometry" />
        </mxCell>
        <mxCell id="DuurUzJLVybcxwFaVG3o-65" value="Analista de seguridad" style="swimlane;startSize=20;horizontal=0;html=1;" parent="DuurUzJLVybcxwFaVG3o-63" vertex="1">
          <mxGeometry y="170" width="2110" height="190" as="geometry" />
        </mxCell>
        <mxCell id="DuurUzJLVybcxwFaVG3o-72" style="edgeStyle=orthogonalEdgeStyle;rounded=0;orthogonalLoop=1;jettySize=auto;html=1;exitX=1;exitY=0;exitDx=0;exitDy=0;entryX=0;entryY=0.5;entryDx=0;entryDy=0;" parent="DuurUzJLVybcxwFaVG3o-65" source="DuurUzJLVybcxwFaVG3o-68" target="DuurUzJLVybcxwFaVG3o-71" edge="1">
          <mxGeometry relative="1" as="geometry" />
        </mxCell>
        <mxCell id="DuurUzJLVybcxwFaVG3o-73" style="edgeStyle=orthogonalEdgeStyle;rounded=0;orthogonalLoop=1;jettySize=auto;html=1;exitX=1;exitY=1;exitDx=0;exitDy=0;entryX=0;entryY=0.5;entryDx=0;entryDy=0;" parent="DuurUzJLVybcxwFaVG3o-65" source="DuurUzJLVybcxwFaVG3o-68" target="DuurUzJLVybcxwFaVG3o-70" edge="1">
          <mxGeometry relative="1" as="geometry" />
        </mxCell>
        <mxCell id="DuurUzJLVybcxwFaVG3o-68" value="Evalúa incidencias" style="html=1;align=center;verticalAlign=top;rounded=1;absoluteArcSize=1;arcSize=10;dashed=0;whiteSpace=wrap;" parent="DuurUzJLVybcxwFaVG3o-65" vertex="1">
          <mxGeometry x="130" y="80" width="140" height="30" as="geometry" />
        </mxCell>
        <mxCell id="DuurUzJLVybcxwFaVG3o-70" value="Listado de empleados implicados" style="fontStyle=0;html=1;whiteSpace=wrap;" parent="DuurUzJLVybcxwFaVG3o-65" vertex="1">
          <mxGeometry x="320" y="130" width="120" height="40" as="geometry" />
        </mxCell>
        <mxCell id="DuurUzJLVybcxwFaVG3o-71" value="Listado de incidencias" style="fontStyle=0;html=1;whiteSpace=wrap;" parent="DuurUzJLVybcxwFaVG3o-65" vertex="1">
          <mxGeometry x="320" y="20" width="120" height="40" as="geometry" />
        </mxCell>
        <mxCell id="DuurUzJLVybcxwFaVG3o-69" style="edgeStyle=orthogonalEdgeStyle;rounded=0;orthogonalLoop=1;jettySize=auto;html=1;exitX=0.5;exitY=1;exitDx=0;exitDy=0;entryX=0.5;entryY=0;entryDx=0;entryDy=0;" parent="DuurUzJLVybcxwFaVG3o-63" source="DuurUzJLVybcxwFaVG3o-60" target="DuurUzJLVybcxwFaVG3o-68" edge="1">
          <mxGeometry relative="1" as="geometry" />
        </mxCell>
        <mxCell id="DuurUzJLVybcxwFaVG3o-75" style="edgeStyle=orthogonalEdgeStyle;rounded=0;orthogonalLoop=1;jettySize=auto;html=1;exitX=0.5;exitY=0;exitDx=0;exitDy=0;entryX=0.5;entryY=1;entryDx=0;entryDy=0;" parent="DuurUzJLVybcxwFaVG3o-63" source="DuurUzJLVybcxwFaVG3o-71" target="DuurUzJLVybcxwFaVG3o-74" edge="1">
          <mxGeometry relative="1" as="geometry" />
        </mxCell>
        <mxCell id="DuurUzJLVybcxwFaVG3o-96" style="edgeStyle=orthogonalEdgeStyle;rounded=0;orthogonalLoop=1;jettySize=auto;html=1;exitX=0.25;exitY=1;exitDx=0;exitDy=0;entryX=-0.173;entryY=0.485;entryDx=0;entryDy=0;entryPerimeter=0;" parent="1" source="DuurUzJLVybcxwFaVG3o-84" target="DuurUzJLVybcxwFaVG3o-95" edge="1">
          <mxGeometry relative="1" as="geometry" />
        </mxCell>
        <mxCell id="DuurUzJLVybcxwFaVG3o-110" style="edgeStyle=orthogonalEdgeStyle;rounded=0;orthogonalLoop=1;jettySize=auto;html=1;exitX=0.5;exitY=1;exitDx=0;exitDy=0;entryX=0.5;entryY=0;entryDx=0;entryDy=0;" parent="1" source="DuurUzJLVybcxwFaVG3o-106" target="DuurUzJLVybcxwFaVG3o-109" edge="1">
          <mxGeometry relative="1" as="geometry" />
        </mxCell>
        <mxCell id="GnfKwq6RzH2X60bF8twh-5" style="edgeStyle=orthogonalEdgeStyle;rounded=0;orthogonalLoop=1;jettySize=auto;html=1;exitX=1;exitY=0.5;exitDx=0;exitDy=0;exitPerimeter=0;entryX=0;entryY=0.5;entryDx=0;entryDy=0;" edge="1" parent="1" source="DuurUzJLVybcxwFaVG3o-112" target="GnfKwq6RzH2X60bF8twh-4">
          <mxGeometry relative="1" as="geometry">
            <Array as="points">
              <mxPoint x="1520" y="785" />
              <mxPoint x="1520" y="225" />
            </Array>
          </mxGeometry>
        </mxCell>
        <mxCell id="GnfKwq6RzH2X60bF8twh-7" style="edgeStyle=orthogonalEdgeStyle;rounded=0;orthogonalLoop=1;jettySize=auto;html=1;exitX=1;exitY=0.5;exitDx=0;exitDy=0;entryX=0;entryY=0.5;entryDx=0;entryDy=0;" edge="1" parent="1" source="GnfKwq6RzH2X60bF8twh-4" target="GnfKwq6RzH2X60bF8twh-2">
          <mxGeometry relative="1" as="geometry" />
        </mxCell>
        <mxCell id="GnfKwq6RzH2X60bF8twh-10" style="edgeStyle=orthogonalEdgeStyle;rounded=0;orthogonalLoop=1;jettySize=auto;html=1;exitX=0.5;exitY=0;exitDx=0;exitDy=0;entryX=0.5;entryY=1;entryDx=0;entryDy=0;" edge="1" parent="1" source="GnfKwq6RzH2X60bF8twh-2" target="GnfKwq6RzH2X60bF8twh-9">
          <mxGeometry relative="1" as="geometry" />
        </mxCell>
      </root>
    </mxGraphModel>
  </diagram>
</mxfile>
